<?xml version="1.0" encoding="UTF-8" standalone="no"?>
<!DOCTYPE svg PUBLIC "-//W3C//DTD SVG 1.1//EN"
 "http://www.w3.org/Graphics/SVG/1.1/DTD/svg11.dtd">
<!-- Generated by graphviz version 2.26.3 (20100126.1600)
 -->
<!-- Title: name Pages: 1 -->
<svg width="570pt" height="856pt"
 viewBox="0.00 0.00 570.00 856.00" xmlns="http://www.w3.org/2000/svg" xmlns:xlink="http://www.w3.org/1999/xlink">
<g id="graph1" class="graph" transform="scale(1 1) rotate(0) translate(4 852)">
<title>name</title>
<!-- district -->
<g id="node1" class="node"><title>district</title>
<polygon fill="Lavender" stroke="Lavender" points="374,-292 374,-315 478,-315 478,-292 374,-292"/>
<polygon fill="none" stroke="black" points="374,-292 374,-315 478,-315 478,-292 374,-292"/>
<text text-anchor="start" x="408" y="-300.7" font-family="Helvetica,sans-Serif" font-weight="bold" font-size="12.00">district</text>
<polygon fill="White" stroke="White" points="374,-274 374,-292 431,-292 431,-274 374,-274"/>
<polygon fill="none" stroke="black" points="374,-274 374,-292 431,-292 431,-274 374,-274"/>
<text text-anchor="start" x="377" y="-280.2" font-family="Helvetica,sans-Serif" font-size="12.00">district_id</text>
<polygon fill="White" stroke="White" points="431,-274 431,-292 478,-292 478,-274 431,-274"/>
<polygon fill="none" stroke="black" points="431,-274 431,-292 478,-292 478,-274 431,-274"/>
<text text-anchor="start" x="434" y="-280.2" font-family="Helvetica,sans-Serif" font-size="12.00">int</text>
<polygon fill="White" stroke="White" points="374,-256 374,-274 431,-274 431,-256 374,-256"/>
<polygon fill="none" stroke="black" points="374,-256 374,-274 431,-274 431,-256 374,-256"/>
<text text-anchor="start" x="377" y="-262.2" font-family="Helvetica,sans-Serif" font-size="12.00">A2</text>
<polygon fill="White" stroke="White" points="431,-256 431,-274 478,-274 478,-256 431,-256"/>
<polygon fill="none" stroke="black" points="431,-256 431,-274 478,-274 478,-256 431,-256"/>
<text text-anchor="start" x="434" y="-262.2" font-family="Helvetica,sans-Serif" font-size="12.00">varchar</text>
<polygon fill="White" stroke="White" points="374,-238 374,-256 431,-256 431,-238 374,-238"/>
<polygon fill="none" stroke="black" points="374,-238 374,-256 431,-256 431,-238 374,-238"/>
<text text-anchor="start" x="377" y="-244.2" font-family="Helvetica,sans-Serif" font-size="12.00">A3</text>
<polygon fill="White" stroke="White" points="431,-238 431,-256 478,-256 478,-238 431,-238"/>
<polygon fill="none" stroke="black" points="431,-238 431,-256 478,-256 478,-238 431,-238"/>
<text text-anchor="start" x="434" y="-244.2" font-family="Helvetica,sans-Serif" font-size="12.00">varchar</text>
<polygon fill="White" stroke="White" points="374,-220 374,-238 431,-238 431,-220 374,-220"/>
<polygon fill="none" stroke="black" points="374,-220 374,-238 431,-238 431,-220 374,-220"/>
<text text-anchor="start" x="377" y="-226.2" font-family="Helvetica,sans-Serif" font-size="12.00">A4</text>
<polygon fill="White" stroke="White" points="431,-220 431,-238 478,-238 478,-220 431,-220"/>
<polygon fill="none" stroke="black" points="431,-220 431,-238 478,-238 478,-220 431,-220"/>
<text text-anchor="start" x="434" y="-226.2" font-family="Helvetica,sans-Serif" font-size="12.00">int</text>
<polygon fill="White" stroke="White" points="374,-202 374,-220 431,-220 431,-202 374,-202"/>
<polygon fill="none" stroke="black" points="374,-202 374,-220 431,-220 431,-202 374,-202"/>
<text text-anchor="start" x="377" y="-208.2" font-family="Helvetica,sans-Serif" font-size="12.00">A5</text>
<polygon fill="White" stroke="White" points="431,-202 431,-220 478,-220 478,-202 431,-202"/>
<polygon fill="none" stroke="black" points="431,-202 431,-220 478,-220 478,-202 431,-202"/>
<text text-anchor="start" x="434" y="-208.2" font-family="Helvetica,sans-Serif" font-size="12.00">int</text>
<polygon fill="White" stroke="White" points="374,-184 374,-202 431,-202 431,-184 374,-184"/>
<polygon fill="none" stroke="black" points="374,-184 374,-202 431,-202 431,-184 374,-184"/>
<text text-anchor="start" x="377" y="-190.2" font-family="Helvetica,sans-Serif" font-size="12.00">A6</text>
<polygon fill="White" stroke="White" points="431,-184 431,-202 478,-202 478,-184 431,-184"/>
<polygon fill="none" stroke="black" points="431,-184 431,-202 478,-202 478,-184 431,-184"/>
<text text-anchor="start" x="434" y="-190.2" font-family="Helvetica,sans-Serif" font-size="12.00">int</text>
<polygon fill="White" stroke="White" points="374,-166 374,-184 431,-184 431,-166 374,-166"/>
<polygon fill="none" stroke="black" points="374,-166 374,-184 431,-184 431,-166 374,-166"/>
<text text-anchor="start" x="377" y="-172.2" font-family="Helvetica,sans-Serif" font-size="12.00">A7</text>
<polygon fill="White" stroke="White" points="431,-166 431,-184 478,-184 478,-166 431,-166"/>
<polygon fill="none" stroke="black" points="431,-166 431,-184 478,-184 478,-166 431,-166"/>
<text text-anchor="start" x="434" y="-172.2" font-family="Helvetica,sans-Serif" font-size="12.00">int</text>
<polygon fill="White" stroke="White" points="374,-148 374,-166 431,-166 431,-148 374,-148"/>
<polygon fill="none" stroke="black" points="374,-148 374,-166 431,-166 431,-148 374,-148"/>
<text text-anchor="start" x="377" y="-154.2" font-family="Helvetica,sans-Serif" font-size="12.00">A8</text>
<polygon fill="White" stroke="White" points="431,-148 431,-166 478,-166 478,-148 431,-148"/>
<polygon fill="none" stroke="black" points="431,-148 431,-166 478,-166 478,-148 431,-148"/>
<text text-anchor="start" x="434" y="-154.2" font-family="Helvetica,sans-Serif" font-size="12.00">int</text>
<polygon fill="White" stroke="White" points="374,-130 374,-148 431,-148 431,-130 374,-130"/>
<polygon fill="none" stroke="black" points="374,-130 374,-148 431,-148 431,-130 374,-130"/>
<text text-anchor="start" x="377" y="-136.2" font-family="Helvetica,sans-Serif" font-size="12.00">A9</text>
<polygon fill="White" stroke="White" points="431,-130 431,-148 478,-148 478,-130 431,-130"/>
<polygon fill="none" stroke="black" points="431,-130 431,-148 478,-148 478,-130 431,-130"/>
<text text-anchor="start" x="434" y="-136.2" font-family="Helvetica,sans-Serif" font-size="12.00">int</text>
<polygon fill="White" stroke="White" points="374,-112 374,-130 431,-130 431,-112 374,-112"/>
<polygon fill="none" stroke="black" points="374,-112 374,-130 431,-130 431,-112 374,-112"/>
<text text-anchor="start" x="377" y="-118.2" font-family="Helvetica,sans-Serif" font-size="12.00">A10</text>
<polygon fill="White" stroke="White" points="431,-112 431,-130 478,-130 478,-112 431,-112"/>
<polygon fill="none" stroke="black" points="431,-112 431,-130 478,-130 478,-112 431,-112"/>
<text text-anchor="start" x="434" y="-118.2" font-family="Helvetica,sans-Serif" font-size="12.00">decimal</text>
<polygon fill="White" stroke="White" points="374,-94 374,-112 431,-112 431,-94 374,-94"/>
<polygon fill="none" stroke="black" points="374,-94 374,-112 431,-112 431,-94 374,-94"/>
<text text-anchor="start" x="377" y="-100.2" font-family="Helvetica,sans-Serif" font-size="12.00">A11</text>
<polygon fill="White" stroke="White" points="431,-94 431,-112 478,-112 478,-94 431,-94"/>
<polygon fill="none" stroke="black" points="431,-94 431,-112 478,-112 478,-94 431,-94"/>
<text text-anchor="start" x="434" y="-100.2" font-family="Helvetica,sans-Serif" font-size="12.00">int</text>
<polygon fill="White" stroke="White" points="374,-76 374,-94 431,-94 431,-76 374,-76"/>
<polygon fill="none" stroke="black" points="374,-76 374,-94 431,-94 431,-76 374,-76"/>
<text text-anchor="start" x="377" y="-82.2" font-family="Helvetica,sans-Serif" font-size="12.00">A12</text>
<polygon fill="White" stroke="White" points="431,-76 431,-94 478,-94 478,-76 431,-76"/>
<polygon fill="none" stroke="black" points="431,-76 431,-94 478,-94 478,-76 431,-76"/>
<text text-anchor="start" x="434" y="-82.2" font-family="Helvetica,sans-Serif" font-size="12.00">decimal</text>
<polygon fill="White" stroke="White" points="374,-58 374,-76 431,-76 431,-58 374,-58"/>
<polygon fill="none" stroke="black" points="374,-58 374,-76 431,-76 431,-58 374,-58"/>
<text text-anchor="start" x="377" y="-64.2" font-family="Helvetica,sans-Serif" font-size="12.00">A13</text>
<polygon fill="White" stroke="White" points="431,-58 431,-76 478,-76 478,-58 431,-58"/>
<polygon fill="none" stroke="black" points="431,-58 431,-76 478,-76 478,-58 431,-58"/>
<text text-anchor="start" x="434" y="-64.2" font-family="Helvetica,sans-Serif" font-size="12.00">decimal</text>
<polygon fill="White" stroke="White" points="374,-40 374,-58 431,-58 431,-40 374,-40"/>
<polygon fill="none" stroke="black" points="374,-40 374,-58 431,-58 431,-40 374,-40"/>
<text text-anchor="start" x="377" y="-46.2" font-family="Helvetica,sans-Serif" font-size="12.00">A14</text>
<polygon fill="White" stroke="White" points="431,-40 431,-58 478,-58 478,-40 431,-40"/>
<polygon fill="none" stroke="black" points="431,-40 431,-58 478,-58 478,-40 431,-40"/>
<text text-anchor="start" x="434" y="-46.2" font-family="Helvetica,sans-Serif" font-size="12.00">int</text>
<polygon fill="White" stroke="White" points="374,-22 374,-40 431,-40 431,-22 374,-22"/>
<polygon fill="none" stroke="black" points="374,-22 374,-40 431,-40 431,-22 374,-22"/>
<text text-anchor="start" x="377" y="-28.2" font-family="Helvetica,sans-Serif" font-size="12.00">A15</text>
<polygon fill="White" stroke="White" points="431,-22 431,-40 478,-40 478,-22 431,-22"/>
<polygon fill="none" stroke="black" points="431,-22 431,-40 478,-40 478,-22 431,-22"/>
<text text-anchor="start" x="434" y="-28.2" font-family="Helvetica,sans-Serif" font-size="12.00">int</text>
<polygon fill="White" stroke="White" points="374,-4 374,-22 431,-22 431,-4 374,-4"/>
<polygon fill="none" stroke="black" points="374,-4 374,-22 431,-22 431,-4 374,-4"/>
<text text-anchor="start" x="377" y="-10.2" font-family="Helvetica,sans-Serif" font-size="12.00">A16</text>
<polygon fill="White" stroke="White" points="431,-4 431,-22 478,-22 478,-4 431,-4"/>
<polygon fill="none" stroke="black" points="431,-4 431,-22 478,-22 478,-4 431,-4"/>
<text text-anchor="start" x="434" y="-10.2" font-family="Helvetica,sans-Serif" font-size="12.00">int</text>
</g>
<!-- account -->
<g id="node2" class="node"><title>account</title>
<polygon fill="Lavender" stroke="Lavender" points="300,-432 300,-455 411,-455 411,-432 300,-432"/>
<polygon fill="none" stroke="black" points="300,-432 300,-455 411,-455 411,-432 300,-432"/>
<text text-anchor="start" x="334" y="-440.7" font-family="Helvetica,sans-Serif" font-weight="bold" font-size="12.00">account</text>
<polygon fill="White" stroke="White" points="300,-414 300,-432 365,-432 365,-414 300,-414"/>
<polygon fill="none" stroke="black" points="300,-414 300,-432 365,-432 365,-414 300,-414"/>
<text text-anchor="start" x="303" y="-420.2" font-family="Helvetica,sans-Serif" font-size="12.00">account_id</text>
<polygon fill="White" stroke="White" points="365,-414 365,-432 411,-432 411,-414 365,-414"/>
<polygon fill="none" stroke="black" points="365,-414 365,-432 411,-432 411,-414 365,-414"/>
<text text-anchor="start" x="368" y="-420.2" font-family="Helvetica,sans-Serif" font-size="12.00">int</text>
<polygon fill="White" stroke="White" points="300,-396 300,-414 365,-414 365,-396 300,-396"/>
<polygon fill="none" stroke="black" points="300,-396 300,-414 365,-414 365,-396 300,-396"/>
<text text-anchor="start" x="303" y="-402.2" font-family="Helvetica,sans-Serif" font-size="12.00">district_id</text>
<polygon fill="White" stroke="White" points="365,-396 365,-414 411,-414 411,-396 365,-396"/>
<polygon fill="none" stroke="black" points="365,-396 365,-414 411,-414 411,-396 365,-396"/>
<text text-anchor="start" x="368" y="-402.2" font-family="Helvetica,sans-Serif" font-size="12.00">int</text>
<polygon fill="White" stroke="White" points="300,-378 300,-396 365,-396 365,-378 300,-378"/>
<polygon fill="none" stroke="black" points="300,-378 300,-396 365,-396 365,-378 300,-378"/>
<text text-anchor="start" x="303" y="-384.2" font-family="Helvetica,sans-Serif" font-size="12.00">frequency</text>
<polygon fill="White" stroke="White" points="365,-378 365,-396 411,-396 411,-378 365,-378"/>
<polygon fill="none" stroke="black" points="365,-378 365,-396 411,-396 411,-378 365,-378"/>
<text text-anchor="start" x="368" y="-384.2" font-family="Helvetica,sans-Serif" font-size="12.00">varchar</text>
<polygon fill="White" stroke="White" points="300,-360 300,-378 365,-378 365,-360 300,-360"/>
<polygon fill="none" stroke="black" points="300,-360 300,-378 365,-378 365,-360 300,-360"/>
<text text-anchor="start" x="303" y="-366.2" font-family="Helvetica,sans-Serif" font-size="12.00">date</text>
<polygon fill="White" stroke="White" points="365,-360 365,-378 411,-378 411,-360 365,-360"/>
<polygon fill="none" stroke="black" points="365,-360 365,-378 411,-378 411,-360 365,-360"/>
<text text-anchor="start" x="368" y="-366.2" font-family="Helvetica,sans-Serif" font-size="12.00">date</text>
</g>
<!-- account&#45;&gt;district -->
<g id="edge2" class="edge"><title>account&#45;&gt;district</title>
<path fill="none" stroke="black" d="M369.798,-356.313C372.205,-347.902 374.809,-338.809 377.53,-329.304"/>
<polygon fill="black" stroke="black" points="380.9,-330.249 380.288,-319.672 374.17,-328.322 380.9,-330.249"/>
</g>
<!-- disp -->
<g id="node4" class="node"><title>disp</title>
<polygon fill="Lavender" stroke="Lavender" points="444,-626 444,-649 555,-649 555,-626 444,-626"/>
<polygon fill="none" stroke="black" points="444,-626 444,-649 555,-649 555,-626 444,-626"/>
<text text-anchor="start" x="488" y="-634.7" font-family="Helvetica,sans-Serif" font-weight="bold" font-size="12.00">disp</text>
<polygon fill="White" stroke="White" points="444,-608 444,-626 509,-626 509,-608 444,-608"/>
<polygon fill="none" stroke="black" points="444,-608 444,-626 509,-626 509,-608 444,-608"/>
<text text-anchor="start" x="447" y="-614.2" font-family="Helvetica,sans-Serif" font-size="12.00">disp_id</text>
<polygon fill="White" stroke="White" points="509,-608 509,-626 555,-626 555,-608 509,-608"/>
<polygon fill="none" stroke="black" points="509,-608 509,-626 555,-626 555,-608 509,-608"/>
<text text-anchor="start" x="512" y="-614.2" font-family="Helvetica,sans-Serif" font-size="12.00">int</text>
<polygon fill="White" stroke="White" points="444,-590 444,-608 509,-608 509,-590 444,-590"/>
<polygon fill="none" stroke="black" points="444,-590 444,-608 509,-608 509,-590 444,-590"/>
<text text-anchor="start" x="447" y="-596.2" font-family="Helvetica,sans-Serif" font-size="12.00">client_id</text>
<polygon fill="White" stroke="White" points="509,-590 509,-608 555,-608 555,-590 509,-590"/>
<polygon fill="none" stroke="black" points="509,-590 509,-608 555,-608 555,-590 509,-590"/>
<text text-anchor="start" x="512" y="-596.2" font-family="Helvetica,sans-Serif" font-size="12.00">int</text>
<polygon fill="White" stroke="White" points="444,-572 444,-590 509,-590 509,-572 444,-572"/>
<polygon fill="none" stroke="black" points="444,-572 444,-590 509,-590 509,-572 444,-572"/>
<text text-anchor="start" x="447" y="-578.2" font-family="Helvetica,sans-Serif" font-size="12.00">account_id</text>
<polygon fill="White" stroke="White" points="509,-572 509,-590 555,-590 555,-572 509,-572"/>
<polygon fill="none" stroke="black" points="509,-572 509,-590 555,-590 555,-572 509,-572"/>
<text text-anchor="start" x="512" y="-578.2" font-family="Helvetica,sans-Serif" font-size="12.00">int</text>
<polygon fill="White" stroke="White" points="444,-554 444,-572 509,-572 509,-554 444,-554"/>
<polygon fill="none" stroke="black" points="444,-554 444,-572 509,-572 509,-554 444,-554"/>
<text text-anchor="start" x="447" y="-560.2" font-family="Helvetica,sans-Serif" font-size="12.00">type</text>
<polygon fill="White" stroke="White" points="509,-554 509,-572 555,-572 555,-554 509,-554"/>
<polygon fill="none" stroke="black" points="509,-554 509,-572 555,-572 555,-554 509,-554"/>
<text text-anchor="start" x="512" y="-560.2" font-family="Helvetica,sans-Serif" font-size="12.00">varchar</text>
</g>
<!-- disp&#45;&gt;account -->
<g id="edge10" class="edge"><title>disp&#45;&gt;account</title>
<path fill="none" stroke="black" d="M463.844,-550.242C445.567,-523.335 427,-496 427,-496 427,-496 416.64,-483.337 403.779,-467.619"/>
<polygon fill="black" stroke="black" points="406.34,-465.222 397.299,-459.699 400.923,-469.655 406.34,-465.222"/>
</g>
<!-- client -->
<g id="node7" class="node"><title>client</title>
<polygon fill="Lavender" stroke="Lavender" points="445,-432 445,-455 551,-455 551,-432 445,-432"/>
<polygon fill="none" stroke="black" points="445,-432 445,-455 551,-455 551,-432 445,-432"/>
<text text-anchor="start" x="483.5" y="-440.7" font-family="Helvetica,sans-Serif" font-weight="bold" font-size="12.00">client</text>
<polygon fill="White" stroke="White" points="445,-414 445,-432 505,-432 505,-414 445,-414"/>
<polygon fill="none" stroke="black" points="445,-414 445,-432 505,-432 505,-414 445,-414"/>
<text text-anchor="start" x="448" y="-420.2" font-family="Helvetica,sans-Serif" font-size="12.00">client_id</text>
<polygon fill="White" stroke="White" points="505,-414 505,-432 551,-432 551,-414 505,-414"/>
<polygon fill="none" stroke="black" points="505,-414 505,-432 551,-432 551,-414 505,-414"/>
<text text-anchor="start" x="508" y="-420.2" font-family="Helvetica,sans-Serif" font-size="12.00">int</text>
<polygon fill="White" stroke="White" points="445,-396 445,-414 505,-414 505,-396 445,-396"/>
<polygon fill="none" stroke="black" points="445,-396 445,-414 505,-414 505,-396 445,-396"/>
<text text-anchor="start" x="448" y="-402.2" font-family="Helvetica,sans-Serif" font-size="12.00">gender</text>
<polygon fill="White" stroke="White" points="505,-396 505,-414 551,-414 551,-396 505,-396"/>
<polygon fill="none" stroke="black" points="505,-396 505,-414 551,-414 551,-396 505,-396"/>
<text text-anchor="start" x="508" y="-402.2" font-family="Helvetica,sans-Serif" font-size="12.00">varchar</text>
<polygon fill="White" stroke="White" points="445,-378 445,-396 505,-396 505,-378 445,-378"/>
<polygon fill="none" stroke="black" points="445,-378 445,-396 505,-396 505,-378 445,-378"/>
<text text-anchor="start" x="448" y="-384.2" font-family="Helvetica,sans-Serif" font-size="12.00">birth_date</text>
<polygon fill="White" stroke="White" points="505,-378 505,-396 551,-396 551,-378 505,-378"/>
<polygon fill="none" stroke="black" points="505,-378 505,-396 551,-396 551,-378 505,-378"/>
<text text-anchor="start" x="508" y="-384.2" font-family="Helvetica,sans-Serif" font-size="12.00">date</text>
<polygon fill="White" stroke="White" points="445,-360 445,-378 505,-378 505,-360 445,-360"/>
<polygon fill="none" stroke="black" points="445,-360 445,-378 505,-378 505,-360 445,-360"/>
<text text-anchor="start" x="448" y="-366.2" font-family="Helvetica,sans-Serif" font-size="12.00">district_id</text>
<polygon fill="White" stroke="White" points="505,-360 505,-378 551,-378 551,-360 505,-360"/>
<polygon fill="none" stroke="black" points="505,-360 505,-378 551,-378 551,-360 505,-360"/>
<text text-anchor="start" x="508" y="-366.2" font-family="Helvetica,sans-Serif" font-size="12.00">int</text>
</g>
<!-- disp&#45;&gt;client -->
<g id="edge8" class="edge"><title>disp&#45;&gt;client</title>
<path fill="none" stroke="black" d="M498.733,-550.266C498.606,-525.493 498.452,-495.643 498.318,-469.695"/>
<polygon fill="black" stroke="black" points="501.818,-469.571 498.266,-459.589 494.818,-469.607 501.818,-469.571"/>
</g>
<!-- card -->
<g id="node5" class="node"><title>card</title>
<polygon fill="Lavender" stroke="Lavender" points="453,-820 453,-843 545,-843 545,-820 453,-820"/>
<polygon fill="none" stroke="black" points="453,-820 453,-843 545,-843 545,-820 453,-820"/>
<text text-anchor="start" x="487" y="-828.7" font-family="Helvetica,sans-Serif" font-weight="bold" font-size="12.00">card</text>
<polygon fill="White" stroke="White" points="453,-802 453,-820 499,-820 499,-802 453,-802"/>
<polygon fill="none" stroke="black" points="453,-802 453,-820 499,-820 499,-802 453,-802"/>
<text text-anchor="start" x="456" y="-808.2" font-family="Helvetica,sans-Serif" font-size="12.00">card_id</text>
<polygon fill="White" stroke="White" points="499,-802 499,-820 545,-820 545,-802 499,-802"/>
<polygon fill="none" stroke="black" points="499,-802 499,-820 545,-820 545,-802 499,-802"/>
<text text-anchor="start" x="502" y="-808.2" font-family="Helvetica,sans-Serif" font-size="12.00">int</text>
<polygon fill="White" stroke="White" points="453,-784 453,-802 499,-802 499,-784 453,-784"/>
<polygon fill="none" stroke="black" points="453,-784 453,-802 499,-802 499,-784 453,-784"/>
<text text-anchor="start" x="456" y="-790.2" font-family="Helvetica,sans-Serif" font-size="12.00">disp_id</text>
<polygon fill="White" stroke="White" points="499,-784 499,-802 545,-802 545,-784 499,-784"/>
<polygon fill="none" stroke="black" points="499,-784 499,-802 545,-802 545,-784 499,-784"/>
<text text-anchor="start" x="502" y="-790.2" font-family="Helvetica,sans-Serif" font-size="12.00">int</text>
<polygon fill="White" stroke="White" points="453,-766 453,-784 499,-784 499,-766 453,-766"/>
<polygon fill="none" stroke="black" points="453,-766 453,-784 499,-784 499,-766 453,-766"/>
<text text-anchor="start" x="456" y="-772.2" font-family="Helvetica,sans-Serif" font-size="12.00">type</text>
<polygon fill="White" stroke="White" points="499,-766 499,-784 545,-784 545,-766 499,-766"/>
<polygon fill="none" stroke="black" points="499,-766 499,-784 545,-784 545,-766 499,-766"/>
<text text-anchor="start" x="502" y="-772.2" font-family="Helvetica,sans-Serif" font-size="12.00">varchar</text>
<polygon fill="White" stroke="White" points="453,-748 453,-766 499,-766 499,-748 453,-748"/>
<polygon fill="none" stroke="black" points="453,-748 453,-766 499,-766 499,-748 453,-748"/>
<text text-anchor="start" x="456" y="-754.2" font-family="Helvetica,sans-Serif" font-size="12.00">issued</text>
<polygon fill="White" stroke="White" points="499,-748 499,-766 545,-766 545,-748 499,-748"/>
<polygon fill="none" stroke="black" points="499,-748 499,-766 545,-766 545,-748 499,-748"/>
<text text-anchor="start" x="502" y="-754.2" font-family="Helvetica,sans-Serif" font-size="12.00">date</text>
</g>
<!-- card&#45;&gt;disp -->
<g id="edge4" class="edge"><title>card&#45;&gt;disp</title>
<path fill="none" stroke="black" d="M499,-744.266C499,-719.493 499,-689.643 499,-663.695"/>
<polygon fill="black" stroke="black" points="502.5,-663.589 499,-653.589 495.5,-663.589 502.5,-663.589"/>
</g>
<!-- client&#45;&gt;district -->
<g id="edge6" class="edge"><title>client&#45;&gt;district</title>
<path fill="none" stroke="black" d="M482.994,-356.313C480.552,-347.902 477.912,-338.809 475.153,-329.304"/>
<polygon fill="black" stroke="black" points="478.506,-328.299 472.356,-319.672 471.783,-330.251 478.506,-328.299"/>
</g>
<!-- loan -->
<g id="node11" class="node"><title>loan</title>
<polygon fill="Lavender" stroke="Lavender" points="8,-653 8,-676 120,-676 120,-653 8,-653"/>
<polygon fill="none" stroke="black" points="8,-653 8,-676 120,-676 120,-653 8,-653"/>
<text text-anchor="start" x="52" y="-661.7" font-family="Helvetica,sans-Serif" font-weight="bold" font-size="12.00">loan</text>
<polygon fill="White" stroke="White" points="8,-635 8,-653 73,-653 73,-635 8,-635"/>
<polygon fill="none" stroke="black" points="8,-635 8,-653 73,-653 73,-635 8,-635"/>
<text text-anchor="start" x="11" y="-641.2" font-family="Helvetica,sans-Serif" font-size="12.00">loan_id</text>
<polygon fill="White" stroke="White" points="73,-635 73,-653 120,-653 120,-635 73,-635"/>
<polygon fill="none" stroke="black" points="73,-635 73,-653 120,-653 120,-635 73,-635"/>
<text text-anchor="start" x="76" y="-641.2" font-family="Helvetica,sans-Serif" font-size="12.00">int</text>
<polygon fill="White" stroke="White" points="8,-617 8,-635 73,-635 73,-617 8,-617"/>
<polygon fill="none" stroke="black" points="8,-617 8,-635 73,-635 73,-617 8,-617"/>
<text text-anchor="start" x="11" y="-623.2" font-family="Helvetica,sans-Serif" font-size="12.00">account_id</text>
<polygon fill="White" stroke="White" points="73,-617 73,-635 120,-635 120,-617 73,-617"/>
<polygon fill="none" stroke="black" points="73,-617 73,-635 120,-635 120,-617 73,-617"/>
<text text-anchor="start" x="76" y="-623.2" font-family="Helvetica,sans-Serif" font-size="12.00">int</text>
<polygon fill="White" stroke="White" points="8,-599 8,-617 73,-617 73,-599 8,-599"/>
<polygon fill="none" stroke="black" points="8,-599 8,-617 73,-617 73,-599 8,-599"/>
<text text-anchor="start" x="11" y="-605.2" font-family="Helvetica,sans-Serif" font-size="12.00">date</text>
<polygon fill="White" stroke="White" points="73,-599 73,-617 120,-617 120,-599 73,-599"/>
<polygon fill="none" stroke="black" points="73,-599 73,-617 120,-617 120,-599 73,-599"/>
<text text-anchor="start" x="76" y="-605.2" font-family="Helvetica,sans-Serif" font-size="12.00">date</text>
<polygon fill="White" stroke="White" points="8,-581 8,-599 73,-599 73,-581 8,-581"/>
<polygon fill="none" stroke="black" points="8,-581 8,-599 73,-599 73,-581 8,-581"/>
<text text-anchor="start" x="11" y="-587.2" font-family="Helvetica,sans-Serif" font-size="12.00">amount</text>
<polygon fill="White" stroke="White" points="73,-581 73,-599 120,-599 120,-581 73,-581"/>
<polygon fill="none" stroke="black" points="73,-581 73,-599 120,-599 120,-581 73,-581"/>
<text text-anchor="start" x="76" y="-587.2" font-family="Helvetica,sans-Serif" font-size="12.00">int</text>
<polygon fill="White" stroke="White" points="8,-563 8,-581 73,-581 73,-563 8,-563"/>
<polygon fill="none" stroke="black" points="8,-563 8,-581 73,-581 73,-563 8,-563"/>
<text text-anchor="start" x="11" y="-569.2" font-family="Helvetica,sans-Serif" font-size="12.00">duration</text>
<polygon fill="White" stroke="White" points="73,-563 73,-581 120,-581 120,-563 73,-563"/>
<polygon fill="none" stroke="black" points="73,-563 73,-581 120,-581 120,-563 73,-563"/>
<text text-anchor="start" x="76" y="-569.2" font-family="Helvetica,sans-Serif" font-size="12.00">int</text>
<polygon fill="White" stroke="White" points="8,-545 8,-563 73,-563 73,-545 8,-545"/>
<polygon fill="none" stroke="black" points="8,-545 8,-563 73,-563 73,-545 8,-545"/>
<text text-anchor="start" x="11" y="-551.2" font-family="Helvetica,sans-Serif" font-size="12.00">payments</text>
<polygon fill="White" stroke="White" points="73,-545 73,-563 120,-563 120,-545 73,-545"/>
<polygon fill="none" stroke="black" points="73,-545 73,-563 120,-563 120,-545 73,-545"/>
<text text-anchor="start" x="76" y="-551.2" font-family="Helvetica,sans-Serif" font-size="12.00">decimal</text>
<polygon fill="White" stroke="White" points="8,-527 8,-545 73,-545 73,-527 8,-527"/>
<polygon fill="none" stroke="black" points="8,-527 8,-545 73,-545 73,-527 8,-527"/>
<text text-anchor="start" x="11" y="-533.2" font-family="Helvetica,sans-Serif" font-size="12.00">status</text>
<polygon fill="White" stroke="White" points="73,-527 73,-545 120,-545 120,-527 73,-527"/>
<polygon fill="none" stroke="black" points="73,-527 73,-545 120,-545 120,-527 73,-527"/>
<text text-anchor="start" x="76" y="-533.2" font-family="Helvetica,sans-Serif" font-size="12.00">varchar</text>
</g>
<!-- loan&#45;&gt;account -->
<g id="edge12" class="edge"><title>loan&#45;&gt;account</title>
<path fill="none" stroke="black" d="M118.201,-523.298C128.952,-507.686 137,-496 137,-496 137,-496 218.934,-462.926 282.341,-437.33"/>
<polygon fill="black" stroke="black" points="283.983,-440.442 291.945,-433.453 281.362,-433.951 283.983,-440.442"/>
</g>
<!-- order -->
<g id="node13" class="node"><title>order</title>
<polygon fill="Lavender" stroke="Lavender" points="154,-644 154,-667 266,-667 266,-644 154,-644"/>
<polygon fill="none" stroke="black" points="154,-644 154,-667 266,-667 266,-644 154,-644"/>
<text text-anchor="start" x="195.5" y="-652.7" font-family="Helvetica,sans-Serif" font-weight="bold" font-size="12.00">order</text>
<polygon fill="White" stroke="White" points="154,-626 154,-644 219,-644 219,-626 154,-626"/>
<polygon fill="none" stroke="black" points="154,-626 154,-644 219,-644 219,-626 154,-626"/>
<text text-anchor="start" x="157" y="-632.2" font-family="Helvetica,sans-Serif" font-size="12.00">order_id</text>
<polygon fill="White" stroke="White" points="219,-626 219,-644 266,-644 266,-626 219,-626"/>
<polygon fill="none" stroke="black" points="219,-626 219,-644 266,-644 266,-626 219,-626"/>
<text text-anchor="start" x="222" y="-632.2" font-family="Helvetica,sans-Serif" font-size="12.00">int</text>
<polygon fill="White" stroke="White" points="154,-608 154,-626 219,-626 219,-608 154,-608"/>
<polygon fill="none" stroke="black" points="154,-608 154,-626 219,-626 219,-608 154,-608"/>
<text text-anchor="start" x="157" y="-614.2" font-family="Helvetica,sans-Serif" font-size="12.00">account_id</text>
<polygon fill="White" stroke="White" points="219,-608 219,-626 266,-626 266,-608 219,-608"/>
<polygon fill="none" stroke="black" points="219,-608 219,-626 266,-626 266,-608 219,-608"/>
<text text-anchor="start" x="222" y="-614.2" font-family="Helvetica,sans-Serif" font-size="12.00">int</text>
<polygon fill="White" stroke="White" points="154,-590 154,-608 219,-608 219,-590 154,-590"/>
<polygon fill="none" stroke="black" points="154,-590 154,-608 219,-608 219,-590 154,-590"/>
<text text-anchor="start" x="157" y="-596.2" font-family="Helvetica,sans-Serif" font-size="12.00">bank_to</text>
<polygon fill="White" stroke="White" points="219,-590 219,-608 266,-608 266,-590 219,-590"/>
<polygon fill="none" stroke="black" points="219,-590 219,-608 266,-608 266,-590 219,-590"/>
<text text-anchor="start" x="222" y="-596.2" font-family="Helvetica,sans-Serif" font-size="12.00">varchar</text>
<polygon fill="White" stroke="White" points="154,-572 154,-590 219,-590 219,-572 154,-572"/>
<polygon fill="none" stroke="black" points="154,-572 154,-590 219,-590 219,-572 154,-572"/>
<text text-anchor="start" x="157" y="-578.2" font-family="Helvetica,sans-Serif" font-size="12.00">account_to</text>
<polygon fill="White" stroke="White" points="219,-572 219,-590 266,-590 266,-572 219,-572"/>
<polygon fill="none" stroke="black" points="219,-572 219,-590 266,-590 266,-572 219,-572"/>
<text text-anchor="start" x="222" y="-578.2" font-family="Helvetica,sans-Serif" font-size="12.00">int</text>
<polygon fill="White" stroke="White" points="154,-554 154,-572 219,-572 219,-554 154,-554"/>
<polygon fill="none" stroke="black" points="154,-554 154,-572 219,-572 219,-554 154,-554"/>
<text text-anchor="start" x="157" y="-560.2" font-family="Helvetica,sans-Serif" font-size="12.00">amount</text>
<polygon fill="White" stroke="White" points="219,-554 219,-572 266,-572 266,-554 219,-554"/>
<polygon fill="none" stroke="black" points="219,-554 219,-572 266,-572 266,-554 219,-554"/>
<text text-anchor="start" x="222" y="-560.2" font-family="Helvetica,sans-Serif" font-size="12.00">decimal</text>
<polygon fill="White" stroke="White" points="154,-536 154,-554 219,-554 219,-536 154,-536"/>
<polygon fill="none" stroke="black" points="154,-536 154,-554 219,-554 219,-536 154,-536"/>
<text text-anchor="start" x="157" y="-542.2" font-family="Helvetica,sans-Serif" font-size="12.00">k_symbol</text>
<polygon fill="White" stroke="White" points="219,-536 219,-554 266,-554 266,-536 219,-536"/>
<polygon fill="none" stroke="black" points="219,-536 219,-554 266,-554 266,-536 219,-536"/>
<text text-anchor="start" x="222" y="-542.2" font-family="Helvetica,sans-Serif" font-size="12.00">varchar</text>
</g>
<!-- order&#45;&gt;account -->
<g id="edge14" class="edge"><title>order&#45;&gt;account</title>
<path fill="none" stroke="black" d="M257.878,-532.479C271.637,-512.499 283,-496 283,-496 283,-496 293.36,-483.337 306.221,-467.619"/>
<polygon fill="black" stroke="black" points="309.077,-469.655 312.701,-459.699 303.66,-465.222 309.077,-469.655"/>
</g>
<!-- trans -->
<g id="node15" class="node"><title>trans</title>
<polygon fill="Lavender" stroke="Lavender" points="300,-680 300,-703 411,-703 411,-680 300,-680"/>
<polygon fill="none" stroke="black" points="300,-680 300,-703 411,-703 411,-680 300,-680"/>
<text text-anchor="start" x="341" y="-688.7" font-family="Helvetica,sans-Serif" font-weight="bold" font-size="12.00">trans</text>
<polygon fill="White" stroke="White" points="300,-662 300,-680 365,-680 365,-662 300,-662"/>
<polygon fill="none" stroke="black" points="300,-662 300,-680 365,-680 365,-662 300,-662"/>
<text text-anchor="start" x="303" y="-668.2" font-family="Helvetica,sans-Serif" font-size="12.00">trans_id</text>
<polygon fill="White" stroke="White" points="365,-662 365,-680 411,-680 411,-662 365,-662"/>
<polygon fill="none" stroke="black" points="365,-662 365,-680 411,-680 411,-662 365,-662"/>
<text text-anchor="start" x="368" y="-668.2" font-family="Helvetica,sans-Serif" font-size="12.00">int</text>
<polygon fill="White" stroke="White" points="300,-644 300,-662 365,-662 365,-644 300,-644"/>
<polygon fill="none" stroke="black" points="300,-644 300,-662 365,-662 365,-644 300,-644"/>
<text text-anchor="start" x="303" y="-650.2" font-family="Helvetica,sans-Serif" font-size="12.00">account_id</text>
<polygon fill="White" stroke="White" points="365,-644 365,-662 411,-662 411,-644 365,-644"/>
<polygon fill="none" stroke="black" points="365,-644 365,-662 411,-662 411,-644 365,-644"/>
<text text-anchor="start" x="368" y="-650.2" font-family="Helvetica,sans-Serif" font-size="12.00">int</text>
<polygon fill="White" stroke="White" points="300,-626 300,-644 365,-644 365,-626 300,-626"/>
<polygon fill="none" stroke="black" points="300,-626 300,-644 365,-644 365,-626 300,-626"/>
<text text-anchor="start" x="303" y="-632.2" font-family="Helvetica,sans-Serif" font-size="12.00">date</text>
<polygon fill="White" stroke="White" points="365,-626 365,-644 411,-644 411,-626 365,-626"/>
<polygon fill="none" stroke="black" points="365,-626 365,-644 411,-644 411,-626 365,-626"/>
<text text-anchor="start" x="368" y="-632.2" font-family="Helvetica,sans-Serif" font-size="12.00">date</text>
<polygon fill="White" stroke="White" points="300,-608 300,-626 365,-626 365,-608 300,-608"/>
<polygon fill="none" stroke="black" points="300,-608 300,-626 365,-626 365,-608 300,-608"/>
<text text-anchor="start" x="303" y="-614.2" font-family="Helvetica,sans-Serif" font-size="12.00">type</text>
<polygon fill="White" stroke="White" points="365,-608 365,-626 411,-626 411,-608 365,-608"/>
<polygon fill="none" stroke="black" points="365,-608 365,-626 411,-626 411,-608 365,-608"/>
<text text-anchor="start" x="368" y="-614.2" font-family="Helvetica,sans-Serif" font-size="12.00">varchar</text>
<polygon fill="White" stroke="White" points="300,-590 300,-608 365,-608 365,-590 300,-590"/>
<polygon fill="none" stroke="black" points="300,-590 300,-608 365,-608 365,-590 300,-590"/>
<text text-anchor="start" x="303" y="-596.2" font-family="Helvetica,sans-Serif" font-size="12.00">operation</text>
<polygon fill="White" stroke="White" points="365,-590 365,-608 411,-608 411,-590 365,-590"/>
<polygon fill="none" stroke="black" points="365,-590 365,-608 411,-608 411,-590 365,-590"/>
<text text-anchor="start" x="368" y="-596.2" font-family="Helvetica,sans-Serif" font-size="12.00">varchar</text>
<polygon fill="White" stroke="White" points="300,-572 300,-590 365,-590 365,-572 300,-572"/>
<polygon fill="none" stroke="black" points="300,-572 300,-590 365,-590 365,-572 300,-572"/>
<text text-anchor="start" x="303" y="-578.2" font-family="Helvetica,sans-Serif" font-size="12.00">amount</text>
<polygon fill="White" stroke="White" points="365,-572 365,-590 411,-590 411,-572 365,-572"/>
<polygon fill="none" stroke="black" points="365,-572 365,-590 411,-590 411,-572 365,-572"/>
<text text-anchor="start" x="368" y="-578.2" font-family="Helvetica,sans-Serif" font-size="12.00">int</text>
<polygon fill="White" stroke="White" points="300,-554 300,-572 365,-572 365,-554 300,-554"/>
<polygon fill="none" stroke="black" points="300,-554 300,-572 365,-572 365,-554 300,-554"/>
<text text-anchor="start" x="303" y="-560.2" font-family="Helvetica,sans-Serif" font-size="12.00">balance</text>
<polygon fill="White" stroke="White" points="365,-554 365,-572 411,-572 411,-554 365,-554"/>
<polygon fill="none" stroke="black" points="365,-554 365,-572 411,-572 411,-554 365,-554"/>
<text text-anchor="start" x="368" y="-560.2" font-family="Helvetica,sans-Serif" font-size="12.00">int</text>
<polygon fill="White" stroke="White" points="300,-536 300,-554 365,-554 365,-536 300,-536"/>
<polygon fill="none" stroke="black" points="300,-536 300,-554 365,-554 365,-536 300,-536"/>
<text text-anchor="start" x="303" y="-542.2" font-family="Helvetica,sans-Serif" font-size="12.00">k_symbol</text>
<polygon fill="White" stroke="White" points="365,-536 365,-554 411,-554 411,-536 365,-536"/>
<polygon fill="none" stroke="black" points="365,-536 365,-554 411,-554 411,-536 365,-536"/>
<text text-anchor="start" x="368" y="-542.2" font-family="Helvetica,sans-Serif" font-size="12.00">varchar</text>
<polygon fill="White" stroke="White" points="300,-518 300,-536 365,-536 365,-518 300,-518"/>
<polygon fill="none" stroke="black" points="300,-518 300,-536 365,-536 365,-518 300,-518"/>
<text text-anchor="start" x="303" y="-524.2" font-family="Helvetica,sans-Serif" font-size="12.00">bank</text>
<polygon fill="White" stroke="White" points="365,-518 365,-536 411,-536 411,-518 365,-518"/>
<polygon fill="none" stroke="black" points="365,-518 365,-536 411,-536 411,-518 365,-518"/>
<text text-anchor="start" x="368" y="-524.2" font-family="Helvetica,sans-Serif" font-size="12.00">varchar</text>
<polygon fill="White" stroke="White" points="300,-500 300,-518 365,-518 365,-500 300,-500"/>
<polygon fill="none" stroke="black" points="300,-500 300,-518 365,-518 365,-500 300,-500"/>
<text text-anchor="start" x="303" y="-506.2" font-family="Helvetica,sans-Serif" font-size="12.00">account</text>
<polygon fill="White" stroke="White" points="365,-500 365,-518 411,-518 411,-500 365,-500"/>
<polygon fill="none" stroke="black" points="365,-500 365,-518 411,-518 411,-500 365,-500"/>
<text text-anchor="start" x="368" y="-506.2" font-family="Helvetica,sans-Serif" font-size="12.00">int</text>
</g>
<!-- trans&#45;&gt;account -->
<g id="edge16" class="edge"><title>trans&#45;&gt;account</title>
<path fill="none" stroke="black" d="M355,-496.484C355,-487.386 355,-478.389 355,-469.816"/>
<polygon fill="black" stroke="black" points="358.5,-469.59 355,-459.59 351.5,-469.59 358.5,-469.59"/>
</g>
</g>
</svg>
